<?xml version="1.0" encoding="utf-8"?>
<svg xmlns="http://www.w3.org/2000/svg" viewBox="0 0 100 100"><path d="M 50.224609 2.1289062 C 45.815609 2.1289062 42.202375 5.6049375 41.984375 9.9609375 L 40.726562 9.9609375 C 38.476842 9.9609375 36.458879 11.150312 35.388672 12.960938 L 28.183594 12.960938 C 25.578594 12.960938 23.051047 14.033297 21.248047 15.904297 C 19.482047 17.737297 18.560344 20.121031 18.652344 22.582031 L 18.652344 81.136719 C 18.559344 83.728719 19.497969 86.181016 21.292969 88.041016 C 23.108969 89.924016 25.556594 90.960937 28.183594 90.960938 L 71.785156 90.960938 C 77.137156 90.960938 81.470344 86.634125 81.652344 81.078125 L 81.652344 22.453125 C 81.467344 17.218125 77.041156 12.960938 71.785156 12.960938 L 64.917969 12.960938 C 63.847544 11.150611 61.828982 9.9609375 59.580078 9.9609375 L 58.464844 9.9609375 C 58.246844 5.6049375 54.633609 2.1289062 50.224609 2.1289062 z M 50.224609 4.1289062 C 53.670609 4.1289062 56.474609 6.9329063 56.474609 10.378906 C 56.474609 10.549906 56.460266 10.715813 56.447266 10.882812 C 56.426266 11.160812 56.521937 11.435625 56.710938 11.640625 C 56.899938 11.845625 57.166312 11.960938 57.445312 11.960938 L 59.580078 11.960938 C 61.450078 11.960938 63.094078 13.134406 63.580078 14.816406 C 63.789078 15.537406 63.805813 16.267937 63.632812 16.960938 L 36.675781 16.960938 C 36.501781 16.267938 36.518562 15.536406 36.726562 14.816406 C 37.212562 13.134406 38.856563 11.960938 40.726562 11.960938 L 43.003906 11.960938 C 43.281906 11.960938 43.547328 11.845625 43.736328 11.640625 C 43.925328 11.435625 44.021 11.160813 44 10.882812 C 43.987 10.715812 43.974609 10.549906 43.974609 10.378906 C 43.974609 6.9329063 46.778609 4.1289062 50.224609 4.1289062 z M 50.154297 6.9609375 C 48.776297 6.9609375 47.654297 8.0829375 47.654297 9.4609375 C 47.654297 10.838938 48.776297 11.960938 50.154297 11.960938 C 51.532297 11.960938 52.654297 10.838938 52.654297 9.4609375 C 52.654297 8.0829375 51.532297 6.9609375 50.154297 6.9609375 z M 50.154297 7.9609375 C 50.981297 7.9609375 51.654297 8.6339375 51.654297 9.4609375 C 51.654297 10.287937 50.981297 10.960938 50.154297 10.960938 C 49.327297 10.960938 48.654297 10.287937 48.654297 9.4609375 C 48.654297 8.6339375 49.327297 7.9609375 50.154297 7.9609375 z M 28.183594 14.960938 L 34.664062 14.960938 C 34.466298 16.11762 34.58117 17.278769 35.042969 18.355469 C 35.200969 18.723469 35.560938 18.960938 35.960938 18.960938 L 64.345703 18.960938 C 64.745703 18.960938 65.107625 18.722469 65.265625 18.355469 C 65.727424 17.278769 65.842296 16.117276 65.644531 14.960938 L 71.785156 14.960938 C 75.976156 14.960938 79.505344 18.352281 79.652344 22.488281 L 79.652344 81.044922 C 79.506344 85.482922 76.050203 88.960938 71.783203 88.960938 L 28.183594 88.960938 C 26.103594 88.960938 24.168422 88.141344 22.732422 86.652344 C 21.318422 85.186344 20.578344 83.252875 20.652344 81.171875 L 20.652344 22.546875 C 20.579344 20.596875 21.303453 18.730969 22.689453 17.292969 C 24.117453 15.811969 26.119594 14.960938 28.183594 14.960938 z M 32.310547 20.599609 C 30.700547 20.599609 29.157656 21.096156 27.847656 22.035156 C 25.846656 23.470156 24.652344 25.781797 24.652344 28.216797 L 24.652344 78.34375 C 24.652344 80.90675 25.981547 83.960938 32.310547 83.960938 L 67.996094 83.960938 C 74.325094 83.960938 75.654297 80.90575 75.654297 78.34375 L 75.654297 63.460938 C 75.654297 63.184937 75.430297 62.960938 75.154297 62.960938 C 74.878297 62.960938 74.654297 63.184937 74.654297 63.460938 L 74.654297 78.345703 C 74.654297 81.452703 72.476094 82.962891 67.996094 82.962891 L 32.310547 82.962891 C 27.830547 82.962891 25.652344 81.451703 25.652344 78.345703 L 25.652344 28.216797 C 25.652344 26.102797 26.692641 24.097609 28.431641 22.849609 C 29.570641 22.032609 30.911547 21.599609 32.310547 21.599609 C 32.586547 21.599609 32.810547 21.375609 32.810547 21.099609 C 32.810547 20.823609 32.586547 20.599609 32.310547 20.599609 z M 67.984375 20.599609 C 67.708375 20.599609 67.484375 20.823609 67.484375 21.099609 C 67.484375 21.375609 67.708375 21.599609 67.984375 21.599609 C 69.387375 21.599609 70.730094 22.032609 71.871094 22.849609 C 73.613094 24.096609 74.654297 26.102891 74.654297 28.212891 L 74.548828 45.457031 C 74.546828 45.733031 74.768922 45.959938 75.044922 45.960938 L 75.048828 45.960938 C 75.322828 45.960938 75.546828 45.739844 75.548828 45.464844 L 75.654297 28.216797 C 75.654297 25.781797 74.457125 23.470156 72.453125 22.035156 C 71.141125 21.095156 69.596375 20.599609 67.984375 20.599609 z M 31.154297 30.960938 C 30.878297 30.960937 30.654297 31.184938 30.654297 31.460938 L 30.654297 36.460938 C 30.654297 36.736938 30.878297 36.960938 31.154297 36.960938 L 36.154297 36.960938 C 36.430297 36.960938 36.654297 36.737938 36.654297 36.460938 L 36.654297 31.460938 C 36.654297 31.184938 36.430297 30.960938 36.154297 30.960938 L 31.154297 30.960938 z M 40.154297 30.960938 C 39.878297 30.960937 39.654297 31.184938 39.654297 31.460938 C 39.654297 31.736937 39.878297 31.960938 40.154297 31.960938 L 53.154297 31.960938 C 53.430297 31.960938 53.654297 31.736937 53.654297 31.460938 C 53.654297 31.184938 53.430297 30.960938 53.154297 30.960938 L 40.154297 30.960938 z M 55.154297 30.960938 C 54.878297 30.960937 54.654297 31.184938 54.654297 31.460938 C 54.654297 31.736937 54.878297 31.960938 55.154297 31.960938 L 63.154297 31.960938 C 63.430297 31.960938 63.654297 31.736937 63.654297 31.460938 C 63.654297 31.184938 63.430297 30.960938 63.154297 30.960938 L 55.154297 30.960938 z M 65.154297 30.960938 C 64.878297 30.960937 64.654297 31.184938 64.654297 31.460938 C 64.654297 31.736937 64.878297 31.960938 65.154297 31.960938 L 70.154297 31.960938 C 70.430297 31.960938 70.654297 31.736937 70.654297 31.460938 C 70.654297 31.184938 70.430297 30.960938 70.154297 30.960938 L 65.154297 30.960938 z M 31.654297 31.960938 L 35.654297 31.960938 L 35.654297 35.960938 L 31.654297 35.960938 L 31.654297 31.960938 z M 40.154297 35.960938 C 39.878297 35.960938 39.654297 36.184937 39.654297 36.460938 C 39.654297 36.736938 39.878297 36.960938 40.154297 36.960938 L 58.154297 36.960938 C 58.430297 36.960938 58.654297 36.736938 58.654297 36.460938 C 58.654297 36.184937 58.430297 35.960938 58.154297 35.960938 L 40.154297 35.960938 z M 60.154297 35.960938 C 59.878297 35.960938 59.654297 36.184937 59.654297 36.460938 C 59.654297 36.736938 59.878297 36.960938 60.154297 36.960938 L 70.154297 36.960938 C 70.430297 36.960938 70.654297 36.736938 70.654297 36.460938 C 70.654297 36.184937 70.430297 35.960938 70.154297 35.960938 L 60.154297 35.960938 z M 31.154297 47.960938 C 30.878297 47.960938 30.654297 48.184937 30.654297 48.460938 L 30.654297 53.460938 C 30.654297 53.736938 30.878297 53.960938 31.154297 53.960938 L 36.154297 53.960938 C 36.430297 53.960937 36.654297 53.736938 36.654297 53.460938 L 36.654297 48.460938 C 36.654297 48.184937 36.430297 47.960938 36.154297 47.960938 L 31.154297 47.960938 z M 40.154297 47.960938 C 39.878297 47.960938 39.654297 48.184937 39.654297 48.460938 C 39.654297 48.736938 39.878297 48.960938 40.154297 48.960938 L 53.154297 48.960938 C 53.430297 48.960937 53.654297 48.736938 53.654297 48.460938 C 53.654297 48.184937 53.430297 47.960938 53.154297 47.960938 L 40.154297 47.960938 z M 55.154297 47.960938 C 54.878297 47.960938 54.654297 48.184937 54.654297 48.460938 C 54.654297 48.736938 54.878297 48.960938 55.154297 48.960938 L 63.154297 48.960938 C 63.430297 48.960937 63.654297 48.736938 63.654297 48.460938 C 63.654297 48.184937 63.430297 47.960938 63.154297 47.960938 L 55.154297 47.960938 z M 65.154297 47.960938 C 64.878297 47.960938 64.654297 48.184937 64.654297 48.460938 C 64.654297 48.736938 64.878297 48.960938 65.154297 48.960938 L 70.154297 48.960938 C 70.430297 48.960937 70.654297 48.736938 70.654297 48.460938 C 70.654297 48.184937 70.430297 47.960938 70.154297 47.960938 L 65.154297 47.960938 z M 31.654297 48.960938 L 35.654297 48.960938 L 35.654297 52.960938 L 31.654297 52.960938 L 31.654297 48.960938 z M 75.154297 49.960938 C 74.878297 49.960938 74.654297 50.184937 74.654297 50.460938 L 74.654297 53.460938 C 74.654297 53.736938 74.878297 53.960938 75.154297 53.960938 C 75.430297 53.960937 75.654297 53.736938 75.654297 53.460938 L 75.654297 50.460938 C 75.654297 50.184937 75.430297 49.960938 75.154297 49.960938 z M 40.154297 52.960938 C 39.878297 52.960938 39.654297 53.184937 39.654297 53.460938 C 39.654297 53.736938 39.878297 53.960938 40.154297 53.960938 L 58.154297 53.960938 C 58.430297 53.960937 58.654297 53.736938 58.654297 53.460938 C 58.654297 53.184937 58.430297 52.960938 58.154297 52.960938 L 40.154297 52.960938 z M 60.154297 52.960938 C 59.878297 52.960938 59.654297 53.184937 59.654297 53.460938 C 59.654297 53.736938 59.878297 53.960938 60.154297 53.960938 L 70.154297 53.960938 C 70.430297 53.960937 70.654297 53.736938 70.654297 53.460938 C 70.654297 53.184937 70.430297 52.960938 70.154297 52.960938 L 60.154297 52.960938 z M 75.154297 54.960938 C 74.878297 54.960938 74.654297 55.184937 74.654297 55.460938 L 74.654297 61.460938 C 74.654297 61.736938 74.878297 61.960938 75.154297 61.960938 C 75.430297 61.960937 75.654297 61.736938 75.654297 61.460938 L 75.654297 55.460938 C 75.654297 55.184937 75.430297 54.960938 75.154297 54.960938 z M 31.154297 63.960938 C 30.878297 63.960938 30.654297 64.184938 30.654297 64.460938 L 30.654297 69.460938 C 30.654297 69.736938 30.878297 69.960938 31.154297 69.960938 L 36.154297 69.960938 C 36.430297 69.960938 36.654297 69.736937 36.654297 69.460938 L 36.654297 64.460938 C 36.654297 64.184937 36.430297 63.960938 36.154297 63.960938 L 31.154297 63.960938 z M 40.154297 63.960938 C 39.878297 63.960938 39.654297 64.184938 39.654297 64.460938 C 39.654297 64.736938 39.878297 64.960938 40.154297 64.960938 L 53.154297 64.960938 C 53.430297 64.960938 53.654297 64.736937 53.654297 64.460938 C 53.654297 64.184937 53.430297 63.960938 53.154297 63.960938 L 40.154297 63.960938 z M 55.154297 63.960938 C 54.878297 63.960938 54.654297 64.184938 54.654297 64.460938 C 54.654297 64.736938 54.878297 64.960938 55.154297 64.960938 L 63.154297 64.960938 C 63.430297 64.960938 63.654297 64.736937 63.654297 64.460938 C 63.654297 64.184937 63.430297 63.960938 63.154297 63.960938 L 55.154297 63.960938 z M 65.154297 63.960938 C 64.878297 63.960938 64.654297 64.184938 64.654297 64.460938 C 64.654297 64.736938 64.878297 64.960938 65.154297 64.960938 L 70.154297 64.960938 C 70.430297 64.960938 70.654297 64.736937 70.654297 64.460938 C 70.654297 64.184937 70.430297 63.960938 70.154297 63.960938 L 65.154297 63.960938 z M 31.654297 64.960938 L 35.654297 64.960938 L 35.654297 68.960938 L 31.654297 68.960938 L 31.654297 64.960938 z M 40.154297 68.960938 C 39.878297 68.960938 39.654297 69.184938 39.654297 69.460938 C 39.654297 69.736938 39.878297 69.960938 40.154297 69.960938 L 58.154297 69.960938 C 58.430297 69.960938 58.654297 69.736937 58.654297 69.460938 C 58.654297 69.184937 58.430297 68.960938 58.154297 68.960938 L 40.154297 68.960938 z M 60.154297 68.960938 C 59.878297 68.960938 59.654297 69.184938 59.654297 69.460938 C 59.654297 69.736938 59.878297 69.960938 60.154297 69.960938 L 70.154297 69.960938 C 70.430297 69.960938 70.654297 69.736937 70.654297 69.460938 C 70.654297 69.184937 70.430297 68.960938 70.154297 68.960938 L 60.154297 68.960938 z" /></svg>
